<svg version="1.2" xmlns="http://www.w3.org/2000/svg" viewBox="0 0 1080 1080" width="1080" height="1080">
	<style>
		.s0 { fill: #bcf970 } 
	</style>
	<path id="Shape 2" fill-rule="evenodd" class="s0" d="m1080 0v1080h-1080v-1080z"/>
	<g>
		<g id="icon">
			<path id="Shape 1" fill-rule="evenodd" class="s1" d="m510 495h214.21c6.63 0 12 5.37 12 12v226.43c0 6.63-5.37 12-12 12h-214.21c-6.63 0-12-5.37-12-12v-226.43c0-6.63 5.37-12 12-12z"/>
			<path class="s1" d="m340.2 876.9c-69.2-10.8-122.3-68.7-127.7-139.1-0.7-9.9-1.6-379.1-0.8-381 0.4-1.1 14.6-1.4 65.9-1.4h65.4l3.1-3.1 3.1-3.1v-65-65h188.6c188.6 0 197.6 0.2 214.9 3.7 51 10.5 94.4 48.9 110.6 97.9 4.1 12.3 6.3 22.7 7.9 36.1 0.6 6.1 1.1 76 1.1 198.1v188.5h-66.1c-36.5 0-66.8 0.4-67.4 0.8-3.5 2.2-3.6 5.3-3.6 69.7v64.4l-192.7-0.1c-158.6-0.1-194.5-0.3-202.2-1.6zm372.8-157.5l3.1-3.1v-170.4-170.4h-171.3c-162.8 0-171.4 0.1-173.6 1.9-1.4 1.1-2.6 3.8-3.3 6.5-1.1 5.5-1.3 336.8-0.2 337.8 0.3 0.4 77.5 0.7 171.4 0.7h170.9l3.1-3.1z"/>
		</g>
	</g>
</svg>